# xmcd
#
# Track frame offsets:
# 150
# 17242
# 35085
# 53567
# 71577
# 89315
# 111145
# 127512
# 146320
# 164457
# 180460
# 201187
#
# Disc length: 2985 seconds
#
#
# Revision: 0
# Processed by: cddbd v1.5.1PL2 Copyright (c) Steve Scherf et al.
# Submitted via: FreeRIP 2.945 
#
DISCID=9a0ba70c
DTITLE=阿吉仔 - 黃金歲月 貳
DYEAR=1900
DGENRE=Pop
TTITLE0=吞落去
TTITLE1=江湖淚
TTITLE2=流浪
TTITLE3=歹竹出好筍
TTITLE4=運命莫怨天
TTITLE5=命運的腳步
TTITLE6=落魄免怨嘆
TTITLE7=母親
TTITLE8=浪子的懺悔
TTITLE9=將心比心
TTITLE10=人在江湖
TTITLE11=甭免強
EXTD=
EXTT0=
EXTT1=
EXTT2=
EXTT3=
EXTT4=
EXTT5=
EXTT6=
EXTT7=
EXTT8=
EXTT9=
EXTT10=
EXTT11=
PLAYORDER=
